<?xml version="1.0" standalone="no"?>
<!DOCTYPE svg PUBLIC "-//W3C//DTD SVG 20010904//EN"
 "http://www.w3.org/TR/2001/REC-SVG-20010904/DTD/svg10.dtd">
<svg version="1.0" xmlns="http://www.w3.org/2000/svg"
 width="700.000000pt" height="700.000000pt" viewBox="0 0 700.000000 700.000000"
 preserveAspectRatio="xMidYMid meet">
<metadata>
Created by potrace 1.11, written by Peter Selinger 2001-2013
</metadata>
<g transform="translate(0.000000,700.000000) scale(0.100000,-0.100000)"
fill="#000000" stroke="none">
<path d="M3310 6993 c-692 -67 -1301 -444 -1670 -1033 -56 -89 -174 -326 -185
-371 -5 -19 -19 -32 -48 -44 -319 -134 -550 -286 -765 -502 -333 -336 -544
-749 -618 -1218 -24 -150 -25 -487 -1 -635 24 -148 25 -154 52 -257 68 -260
196 -517 376 -761 67 -89 274 -306 344 -359 221 -168 373 -259 569 -338 l79
-33 27 -68 c163 -421 518 -833 920 -1069 238 -140 561 -255 789 -281 25 -3 73
-9 106 -13 65 -9 418 -6 475 4 19 3 67 10 105 16 39 6 122 24 185 41 373 97
704 286 982 560 218 215 393 476 498 743 18 47 34 71 46 74 35 7 298 137 380
188 287 179 557 450 723 725 223 373 323 743 316 1173 -1 99 -8 214 -15 255
-6 41 -13 89 -16 106 -2 17 -17 83 -33 145 -137 540 -488 1017 -971 1319 -84
53 -290 155 -362 181 -34 12 -41 21 -69 88 -42 101 -114 243 -155 309 -19 29
-34 55 -34 58 0 9 -134 189 -179 239 -367 410 -818 660 -1336 740 -101 16
-423 27 -515 18z m380 -177 c365 -34 727 -177 1032 -407 104 -79 295 -269 374
-374 75 -99 161 -237 204 -330 18 -38 34 -72 36 -75 1 -3 -47 4 -107 16 -60
13 -148 26 -196 30 -151 14 -404 9 -533 -10 -15 -3 -93 -16 -120 -21 -262 -49
-612 -201 -832 -362 l-48 -35 -47 35 c-113 82 -417 247 -456 247 -7 0 -17 4
-23 9 -25 24 -348 111 -464 125 -273 34 -527 27 -753 -20 -102 -21 -100 -23
-60 59 159 324 434 626 746 819 157 98 429 215 566 244 122 25 249 45 316 50
44 3 81 6 82 7 4 5 219 -1 283 -7z m-1240 -1321 c200 -31 297 -56 461 -118
123 -47 350 -168 426 -227 l23 -18 -58 -53 c-123 -116 -248 -268 -340 -415
-56 -90 -159 -291 -187 -368 -15 -39 -26 -51 -54 -63 -277 -110 -557 -293
-756 -491 -115 -115 -95 -119 -187 33 -181 300 -274 614 -285 970 -7 223 18
441 72 622 15 51 16 52 73 68 71 21 173 44 232 52 25 3 65 9 90 13 76 12 400
9 490 -5z m2620 0 c95 -13 201 -34 295 -59 48 -13 51 -15 67 -66 31 -93 63
-265 73 -395 6 -65 6 -293 1 -325 -2 -14 -7 -54 -11 -90 -8 -89 -50 -272 -87
-383 -51 -157 -182 -418 -258 -514 l-17 -22 -54 57 c-210 223 -490 410 -800
535 -31 13 -40 24 -57 69 -92 245 -282 534 -486 738 -108 109 -113 90 39 182
224 135 473 226 730 266 146 23 426 26 565 7z m-3701 -187 c-5 -18 -12 -49
-15 -68 -3 -19 -9 -57 -14 -85 -24 -131 -33 -386 -18 -540 36 -385 179 -770
395 -1067 l35 -48 -35 -47 c-97 -134 -220 -368 -277 -530 -32 -89 -76 -247
-85 -303 -3 -19 -8 -42 -10 -50 -4 -16 -10 -64 -24 -190 -8 -78 -7 -363 2
-415 3 -16 8 -50 11 -75 5 -40 15 -100 33 -199 l6 -33 -99 52 c-226 120 -334
199 -504 370 -261 260 -437 563 -529 910 -71 270 -85 599 -36 860 4 19 9 46
11 60 32 183 143 455 264 651 163 263 430 524 689 673 67 39 199 106 208 106
1 0 -3 -15 -8 -32z m4351 -13 c221 -108 488 -322 647 -520 231 -286 396 -659
437 -985 62 -488 -28 -928 -274 -1334 -53 -88 -173 -251 -220 -297 -15 -15
-38 -40 -51 -56 -34 -39 -172 -160 -247 -216 -134 -100 -382 -240 -382 -215 0
7 6 45 14 83 61 296 55 638 -15 934 -25 105 -78 273 -90 285 -5 6 -9 16 -9 23
0 29 -135 286 -205 393 l-75 112 34 47 c96 131 212 351 271 515 35 98 80 257
90 316 3 19 8 49 12 65 6 32 7 40 19 155 11 97 10 332 0 435 -10 99 -42 280
-52 297 -6 10 23 -1 96 -37z m-2114 -373 c106 -105 221 -250 296 -372 50 -82
118 -214 118 -229 0 -6 -13 -6 -32 -1 -18 5 -49 11 -68 14 -19 3 -44 7 -55 10
-24 4 -92 14 -160 22 -107 13 -420 5 -509 -12 -22 -4 -76 -14 -111 -20 -40 -7
-80 -16 -98 -20 -14 -4 -9 11 24 78 77 153 189 321 293 438 51 57 189 190 197
190 4 0 51 -44 105 -98z m139 -737 c115 -16 365 -70 365 -79 0 -1 11 -46 25
-100 23 -91 31 -132 52 -271 10 -67 10 -371 0 -465 -9 -88 -30 -195 -59 -301
l-20 -77 -80 -21 c-175 -48 -313 -65 -528 -66 -220 0 -377 21 -552 72 l-56 17
-16 55 c-53 192 -75 370 -70 586 3 185 6 220 30 340 13 66 53 226 58 232 3 4
197 52 236 58 25 4 54 9 65 11 11 3 54 7 95 11 41 3 77 7 80 10 6 5 325 -5
375 -12z m-1071 -230 c-8 -39 -17 -86 -20 -105 -3 -19 -7 -46 -10 -60 -16 -88
-22 -342 -11 -476 7 -83 42 -300 53 -329 15 -38 -247 111 -406 231 -91 68
-300 266 -300 283 0 5 45 54 100 110 98 99 241 213 350 281 52 33 253 139 257
136 1 -1 -5 -33 -13 -71z m1876 -53 c77 -47 207 -142 270 -197 51 -45 200
-198 200 -206 0 -4 -45 -52 -100 -108 -151 -152 -333 -283 -528 -380 -73 -37
-83 -40 -77 -22 3 12 8 31 10 43 29 165 37 216 42 288 11 152 6 357 -13 480
-10 73 -35 201 -41 216 -7 18 121 -43 237 -114z m-2519 -708 c180 -166 441
-327 690 -427 28 -12 39 -24 54 -63 28 -76 131 -278 186 -365 80 -128 190
-267 297 -374 115 -115 119 -95 -33 -187 -163 -98 -353 -179 -530 -225 -190
-49 -310 -62 -535 -58 -113 2 -223 6 -245 10 -87 14 -223 44 -277 60 -57 16
-58 17 -73 68 -22 78 -52 224 -62 302 -10 88 -11 420 0 503 39 313 148 597
340 890 l22 32 50 -52 c28 -29 80 -80 116 -114z m3191 31 c81 -134 144 -272
189 -410 27 -82 55 -188 64 -240 6 -37 24 -160 30 -205 6 -51 7 -314 1 -345
-2 -11 -7 -51 -11 -89 -4 -38 -9 -81 -11 -95 -10 -57 -58 -246 -64 -254 -13
-15 -183 -56 -310 -76 -88 -13 -177 -19 -300 -19 -154 0 -215 5 -385 33 -62
10 -152 34 -246 65 -75 26 -119 44 -258 107 -67 30 -271 157 -271 168 0 6 24
34 53 61 125 119 242 262 337 414 49 77 153 283 192 377 11 26 26 44 40 48 38
12 259 117 313 149 106 63 242 156 299 206 76 66 145 130 195 182 l54 57 17
-22 c10 -12 42 -62 72 -112z m-2137 -559 c166 -31 234 -37 395 -39 187 -1 289
10 531 58 13 3 8 -15 -23 -78 -69 -142 -185 -317 -283 -427 -53 -59 -198 -200
-206 -200 -4 0 -51 44 -105 98 -153 151 -286 336 -383 530 -34 67 -38 83 -24
78 10 -3 54 -12 98 -20z m464 -950 c139 -101 364 -218 541 -281 87 -30 249
-74 300 -81 19 -2 42 -6 50 -9 8 -2 38 -7 65 -10 28 -4 64 -9 80 -12 51 -9
357 -10 430 -2 125 15 158 20 228 35 104 22 102 24 58 -63 -100 -200 -216
-359 -380 -524 -179 -178 -325 -282 -553 -393 -229 -112 -439 -170 -693 -192
-128 -12 -368 -6 -452 10 -11 3 -43 8 -70 11 -64 10 -221 50 -313 81 -77 27
-298 131 -383 181 -175 104 -429 332 -554 498 -90 120 -201 305 -233 390 -8
22 -8 23 23 14 28 -8 75 -17 173 -34 152 -25 448 -25 644 0 183 24 422 98 620
192 86 41 266 147 325 192 22 17 42 31 44 31 2 0 24 -15 50 -34z"/>
</g>
</svg>
